#!OML:ASF I:\Actors\actors\Patient Classification 2\Patient 1\Session 1\actor1.ASF
:FULLY-SPECIFIED
:DEGREES
184
root -0.532828 18.7418 5.7315 4.00382 -2.8839 -2.24936
lowerback 2.26619 0.605403 -0.730074
upperback -0.725678 0.769092 -0.819439
thorax -2.01239 0.387791 -0.461337
lowerneck -14.2389 -2.53097 -1.86802
upperneck 33.2845 -4.22844 2.89007
head 13.7663 -1.70206 0.807398
rclavicle 1.5704e-014 -1.90833e-014
rhumerus -24.8249 32.1518 -94.1747
rradius 85.7559
rwrist 18.4396
rhand -12.7916 -62.1227
rfingers 7.12502
rthumb 13.294 -268.321
lclavicle 1.5704e-014 -1.90833e-014
lhumerus -8.82554 -31.4386 86.5199
lradius 74.0573
lwrist -6.04982
lhand 14.0722 -28.7045
lfingers 7.12502
lthumb 38.9776 -3.17805
rfemur 0 0 0
rtibia 0
rfoot 0 0
rtoes 0
lfemur -6.63065 -6.30437 -12.5558
ltibia 22.4084
lfoot -24.4 15.9006
ltoes -53.9801
185
root -0.53369 18.7404 5.73508 3.95861 -3.18047 -2.1982
lowerback 2.44628 0.762558 -0.761332
upperback -0.783869 0.974376 -0.831366
thorax -2.17315 0.49078 -0.46759
lowerneck -14.2669 -2.63125 -2.03524
upperneck 33.3928 -4.37392 3.0122
head 13.8337 -1.76804 0.862433
rclavicle -2.83268e-015 -7.95139e-016
rhumerus -24.7022 32.0464 -94.2645
rradius 84.4496
rwrist 18.6526
rhand -12.4635 -62.4006
rfingers 7.12502
rthumb 13.6103 -268.064
lclavicle -2.83268e-015 -7.95139e-016
lhumerus -8.93082 -31.6282 86.6884
lradius 74.1363
lwrist -5.92805
lhand 14.1408 -28.5587
lfingers 7.12502
lthumb 39.0423 -3.05082
rfemur 0 0 0
rtibia 0
rfoot 0 0
rtoes 0
lfemur -6.48288 -6.19994 -12.6593
ltibia 22.381
lfoot -24.4719 16.108
ltoes -54.0898
186
root -0.532794 18.7384 5.73822 3.86914 -3.43656 -2.14275
lowerback 2.53434 0.887319 -0.758738
upperback -0.727334 1.14007 -0.839586
thorax -2.164 0.573302 -0.485505
lowerneck -14.3855 -2.69626 -2.17955
upperneck 33.4226 -4.44625 3.06974
head 13.8817 -1.80753 0.897782
rclavicle 1.48095e-014 -5.56597e-015
rhumerus -24.527 32.166 -94.223
rradius 83.5361
rwrist 18.7326
rhand -12.0227 -62.6451
rfingers 7.12502
rthumb 14.0351 -267.849
lclavicle 1.48095e-014 -5.56597e-015
lhumerus -8.85087 -31.7768 86.7283
lradius 74.2021
lwrist -5.769
lhand 14.183 -28.349
lfingers 7.12502
lthumb 39.0821 -2.85249
rfemur 0 0 0
rtibia 0
rfoot 0 0
rtoes 0
lfemur -6.29869 -6.17868 -12.7824
ltibia 22.3572
lfoot -24.5453 16.3793
ltoes -54.2371
187
root -0.530072 18.7368 5.74258 3.80203 -3.61261 -2.13082
lowerback 2.6304 0.961343 -0.643895
upperback -0.70003 1.24067 -0.891072
thorax -2.1861 0.621616 -0.608516
lowerneck -14.4551 -2.70224 -2.18626
upperneck 33.428 -4.46153 3.09719
head 13.9012 -1.81009 0.906672
rclavicle -1.82882e-014 1.11319e-014
rhumerus -24.703 32.3872 -94.3419
rradius 83.2439
rwrist 18.6597
rhand -11.297 -62.6149
rfingers 7.12502
rthumb 14.7343 -267.929
lclavicle -1.82882e-014 1.11319e-014
lhumerus -8.82097 -31.909 86.6526
lradius 74.2565
lwrist -5.68209
lhand 14.1413 -28.2093
lfingers 7.12502
lthumb 39.0427 -2.7015
rfemur 0 0 0
rtibia 0
rfoot 0 0
rtoes 0
lfemur -6.16201 -6.13896 -12.8391
ltibia 22.3458
lfoot -24.631 16.4809
ltoes -54.2048
188
root -0.529514 18.7361 5.74944 3.79829 -3.73744 -2.19304
lowerback 2.51914 0.966095 -0.55807
upperback -0.599587 1.2522 -0.896067
thorax -2.01844 0.626265 -0.658743
lowerneck -14.5261 -2.65654 -2.14754
upperneck 33.3543 -4.41441 3.13345
head 13.8826 -1.77979 0.920666
rclavicle 2.29596e-014 -8.74653e-015
rhumerus -25.0291 32.6728 -94.5154
rradius 83.6112
rwrist 18.7151
rhand -10.0276 -62.1549
rfingers 7.12502
rthumb 15.9571 -268.482
lclavicle 2.29596e-014 -8.74653e-015
lhumerus -8.67035 -31.8434 86.4264
lradius 74.3022
lwrist -5.69399
lhand 14.1314 -28.1974
lfingers 7.12502
lthumb 39.0334 -2.68695
rfemur 0 0 0
rtibia 0
rfoot 0 0
rtoes 0
lfemur -6.09594 -6.00761 -12.7736
ltibia 22.3404
lfoot -24.713 16.3865
ltoes -54.0404
189
root -0.531072 18.7362 5.75438 3.81685 -3.72263 -2.26052
lowerback 2.11956 0.846999 -0.707042
upperback -0.309507 1.09929 -0.749
thorax -1.50341 0.551866 -0.40814
lowerneck -14.6715 -2.55084 -2.19085
upperneck 33.1171 -4.2365 3.14199
head 13.8046 -1.7076 0.956973
rclavicle -9.34288e-015 1.03368e-014
rhumerus -25.202 33.1664 -94.4765
rradius 84.5569
rwrist 18.7814
rhand -12.6143 -62.2239
rfingers 7.12502
rthumb 13.465 -268.231
lclavicle -9.34288e-015 1.03368e-014
lhumerus -8.27775 -31.4144 86.1151
lradius 74.3784
lwrist -5.75968
lhand 14.069 -28.2382
lfingers 7.12502
lthumb 38.9746 -2.71089
rfemur 0 0 0
rtibia 0
rfoot 0 0
rtoes 0
lfemur -6.12117 -5.79735 -12.6821
ltibia 22.3407
lfoot -24.4972 16.3707
ltoes -54.2411
190
root -0.531514 18.7358 5.75553 3.85605 -3.53354 -2.24179
lowerback 2.58536 0.806342 -0.516155
upperback -0.601303 1.04008 -0.882107
thorax -2.05834 0.519949 -0.660065
lowerneck -14.3326 -2.54657 -2.17937
upperneck 33.1227 -4.29211 3.29569
head 13.7384 -1.71442 1.01137
rclavicle -1.22253e-014 6.36111e-015
rhumerus -26.6104 32.8545 -95.1613
rradius 85.9968
rwrist 18.8758
rhand -13.1124 -62.2734
rfingers 7.12502
rthumb 12.9848 -268.151
lclavicle -1.22253e-014 6.36111e-015
lhumerus -8.85229 -31.5938 86.1618
lradius 74.5656
lwrist -5.73875
lhand 13.9484 -28.2737
lfingers 7.12502
lthumb 38.8608 -2.71399
rfemur 0 0 0
rtibia 0
rfoot 0 0
rtoes 0
lfemur -6.26466 -5.59446 -12.6842
ltibia 22.3493
lfoot -23.9862 16.4898
ltoes -54.6733
191
root -0.531907 18.736 5.75654 3.92258 -3.2868 -2.18335
lowerback 2.70009 0.72484 -0.482682
upperback -0.690426 0.92941 -0.929681
thorax -2.21379 0.463884 -0.725436
lowerneck -14.1549 -2.54147 -2.26881
upperneck 33.0504 -4.30743 3.4409
head 13.6746 -1.71602 1.08391
rclavicle 2.67365e-014 -2.14687e-014
rhumerus -27.622 32.6172 -95.5282
rradius 87.3905
rwrist 18.8403
rhand -13.161 -62.1271
rfingers 7.12502
rthumb 12.938 -268.294
lclavicle 2.67365e-014 -2.14687e-014
lhumerus -9.03903 -31.5671 86.1777
lradius 74.6511
lwrist -5.66831
lhand 13.9638 -28.3709
lfingers 7.12502
lthumb 38.8754 -2.81533
rfemur 0 0 0
rtibia 0
rfoot 0 0
rtoes 0
lfemur -6.44155 -5.52291 -12.7153
ltibia 22.3636
lfoot -23.6847 16.4618
ltoes -55.0709
192
root -0.533986 18.7371 5.75843 3.97113 -3.03294 -2.16382
lowerback 2.63298 0.631105 -0.482859
upperback -0.660065 0.805557 -0.924981
thorax -2.14605 0.402165 -0.713709
lowerneck -14.0865 -2.54337 -2.38545
upperneck 33.0067 -4.31079 3.54509
head 13.6466 -1.71954 1.14563
rclavicle -5.41688e-015 6.36111e-015
rhumerus -28.1856 32.3898 -95.7475
rradius 88.3309
rwrist 18.8172
rhand -13.3289 -62.0655
rfingers 7.12502
rthumb 12.7762 -268.345
lclavicle -5.41688e-015 6.36111e-015
lhumerus -9.01649 -31.4236 86.1538
lradius 74.6846
lwrist -5.61135
lhand 14.1189 -28.5128
lfingers 7.12502
lthumb 39.0217 -2.99901
rfemur 0 0 0
rtibia 0
rfoot 0 0
rtoes 0
lfemur -6.57538 -5.54314 -12.688
ltibia 22.3825
lfoot -23.5959 16.2768
ltoes -55.0821
193
root -0.53513 18.739 5.75961 4.00358 -2.82535 -2.17481
lowerback 2.58041 0.555469 -0.393886
upperback -0.621243 0.708335 -0.941859
thorax -2.07619 0.352482 -0.775648
lowerneck -14.1055 -2.53141 -2.36136
upperneck 33.032 -4.26687 3.44815
head 13.6566 -1.70989 1.10981
rclavicle -1.6847e-014 1.98785e-014
rhumerus -28.4755 32.0434 -95.9552
rradius 88.7309
rwrist 19.0377
rhand -13.2045 -61.947
rfingers 7.12502
rthumb 12.896 -268.471
lclavicle -1.6847e-014 1.98785e-014
lhumerus -8.96304 -31.325 86.0849
lradius 74.7021
lwrist -5.58688
lhand 14.2307 -28.6342
lfingers 7.12502
lthumb 39.127 -3.15069
rfemur 0 0 0
rtibia 0
rfoot 0 0
rtoes 0
lfemur -6.6537 -5.70993 -12.6361
ltibia 22.4018
lfoot -23.6917 16.0593
ltoes -54.8121
194
root -0.533473 18.7412 5.76088 4.03904 -2.69141 -2.19046
lowerback 2.5442 0.491177 -0.232742
upperback -0.611202 0.627547 -0.985807
thorax -2.04415 0.309955 -0.907122
lowerneck -14.1479 -2.50677 -2.30666
upperneck 33.1119 -4.20976 3.33398
head 13.6939 -1.6924 1.064
rclavicle -1.32689e-014 1.59028e-015
rhumerus -28.5897 31.6709 -96.1329
rradius 88.6587
rwrist 19.5513
rhand -12.7714 -61.3971
rfingers 7.12502
rthumb 13.3135 -269.048
lclavicle -1.32689e-014 1.59028e-015
lhumerus -8.94378 -31.2587 85.9973
lradius 74.6703
lwrist -5.5956
lhand 14.2392 -28.6952
lfingers 7.12502
lthumb 39.135 -3.21402
rfemur 0 0 0
rtibia 0
rfoot 0 0
rtoes 0
lfemur -6.67903 -6.08174 -12.6009
ltibia 22.4144
lfoot -24.0681 15.855
ltoes -54.3502
195
root -0.532482 18.7403 5.762 4.05996 -2.62821 -2.19499
lowerback 2.53285 0.448334 -0.15298
upperback -0.620815 0.572585 -1.00968
thorax -2.0474 0.281375 -0.973954
lowerneck -14.1735 -2.47776 -2.26607
upperneck 33.2101 -4.16082 3.27002
head 13.7379 -1.67365 1.03965
rclavicle 1.93318e-014 -2.3059e-014
rhumerus -28.3267 31.0054 -95.9347
rradius 88.1157
rwrist 21.2253
rhand -10.0724 -61.8143
rfingers 7.12502
rthumb 15.9139 -268.82
lclavicle 1.93318e-014 -2.3059e-014
lhumerus -8.94364 -31.2268 85.9378
lradius 74.5979
lwrist -5.57164
lhand 14.174 -28.6732
lfingers 7.12502
lthumb 39.0736 -3.17433
rfemur 0 0 0
rtibia 0
rfoot 0 0
rtoes 0
lfemur -6.70447 -6.18112 -12.5952
ltibia 22.4138
lfoot -24.1049 15.8526
ltoes -54.3116
196
root -0.534412 18.7379 5.76192 4.0481 -2.66188 -2.18567
lowerback 2.55554 0.448872 -0.240617
upperback -0.621951 0.570848 -0.976902
thorax -2.06251 0.281759 -0.891344
lowerneck -14.2216 -2.45472 -2.25353
upperneck 33.3049 -4.12068 3.23141
head 13.7874 -1.65843 1.02867
rclavicle 2.0773e-014 -1.74931e-014
rhumerus -28.1556 30.9705 -95.873
rradius 87.3755
rwrist 21.076
rhand -9.94437 -62.0958
rfingers 7.12502
rthumb 16.0372 -268.548
lclavicle 2.0773e-014 -1.74931e-014
lhumerus -8.92858 -31.1973 85.9578
lradius 74.5076
lwrist -5.52889
lhand 14.0451 -28.6728
lfingers 7.12502
lthumb 38.9521 -3.13902
rfemur 0 0 0
rtibia 0
rfoot 0 0
rtoes 0
lfemur -6.69008 -6.03908 -12.6095
ltibia 22.3949
lfoot -23.9113 15.9503
ltoes -54.4278
197
root -0.536725 18.7377 5.76179 4.03429 -2.75936 -2.15793
lowerback 2.56352 0.487907 -0.415699
upperback -0.606514 0.618269 -0.919891
thorax -2.05297 0.30796 -0.736712
lowerneck -14.2983 -2.46454 -2.28841
upperneck 33.3518 -4.12725 3.23536
head 13.8265 -1.6636 1.03488
rclavicle -1.02374e-014 -6.36111e-015
rhumerus -28.1563 31.4624 -95.9999
rradius 86.6111
rwrist 19.1249
rhand -12.9496 -61.9277
rfingers 7.12502
rthumb 13.1418 -268.506
lclavicle -1.02374e-014 -6.36111e-015
lhumerus -8.87526 -31.1595 86.0283
lradius 74.4235
lwrist -5.57199
lhand 13.9644 -28.7366
lfingers 7.12502
lthumb 38.876 -3.18111
rfemur 0 0 0
rtibia 0
rfoot 0 0
rtoes 0
lfemur -6.60739 -6.08425 -12.636
ltibia 22.3596
lfoot -24.114 15.8605
ltoes -54.3953
198
root -0.538086 18.739 5.76249 4.06308 -2.87005 -2.11091
lowerback 2.53442 0.581837 -0.570461
upperback -0.594814 0.739627 -0.879145
thorax -2.02597 0.370675 -0.612951
lowerneck -14.3718 -2.54998 -2.392
upperneck 33.3334 -4.23457 3.27694
head 13.8428 -1.71621 1.05155
rclavicle -6.36111e-015 -2.38542e-015
rhumerus -27.8752 31.0625 -95.5494
rradius 86.1833
rwrist 20.2816
rhand -10.3661 -62.6384
rfingers 7.12502
rthumb 15.6311 -267.973
lclavicle -6.36111e-015 -2.38542e-015
lhumerus -8.78793 -31.255 86.1457
lradius 74.3687
lwrist -5.63926
lhand 13.9003 -28.7804
lfingers 7.12502
lthumb 38.8156 -3.20776
rfemur 0 0 0
rtibia 0
rfoot 0 0
rtoes 0
lfemur -6.56897 -6.12839 -12.6842
ltibia 22.3242
lfoot -24.3115 15.7935
ltoes -54.1152
199
root -0.538981 18.7385 5.76268 4.09153 -2.9885 -2.08039
lowerback 2.54649 0.711326 -0.660502
upperback -0.596634 0.909848 -0.843837
thorax -2.03554 0.456943 -0.533722
lowerneck -14.4303 -2.67217 -2.54937
upperneck 33.3016 -4.38971 3.3492
head 13.8545 -1.7922 1.08225
rclavicle -1.75924e-014 1.98785e-014
rhumerus -28.052 31.3716 -95.4999
rradius 86.0539
rwrist 18.6026
rhand -13.0543 -62.4228
rfingers 7.12502
rthumb 13.0409 -268.005
lclavicle -1.75924e-014 1.98785e-014
lhumerus -8.72749 -31.4429 86.3194
lradius 74.352
lwrist -5.70669
lhand 13.8017 -28.8361
lfingers 7.12502
lthumb 38.7225 -3.23718
rfemur 0 0 0
rtibia 0
rfoot 0 0
rtoes 0
lfemur -6.57741 -5.97845 -12.737
ltibia 22.3007
lfoot -24.1405 15.9853
ltoes -54.4248
